# xmcd
#
# Track frame offsets:
#	150
#	24694
#	51813
#	76279
#
# Disc length: 1312 seconds
#
# Revision: 0
# Processed by: cddbd v1.5.1PL2 Copyright (c) Steve Scherf et al.
# Submitted via: dBpowerAMP V4.0
#
DISCID=28051e04
DTITLE=Anna-Karin Palm - Herrgården - CD-BOK 06/06
DYEAR=2005
DGENRE=CD-BOK
TTITLE0=06.01
TTITLE1=06.02
TTITLE2=06.03
TTITLE3=06.04
EXTD=
EXTT0=
EXTT1=
EXTT2=
EXTT3=
PLAYORDER=
